<svg xmlns="http://www.w3.org/2000/svg" xmlns:xlink="http://www.w3.org/1999/xlink" width="1193.31" height="1255.202" viewBox="0 0 1193.31 1255.202">
    <defs>
      <linearGradient id="linear-gradient" x1="0.5" x2="0.5" y2="1" gradientUnits="objectBoundingBox">
        <stop offset="0" stop-color="#72a1ff"/>
        <stop offset="1" stop-color="#c898ff"/>
      </linearGradient>
    </defs>
    <g id="Group_68" data-name="Group 68" transform="translate(-855.537 202.879)">
      <path id="Path_1" data-name="Path 1" d="M-3.46,121.614,784.376,576.447c100.342,57.936,100.342,202.747,0,260.683L-3.46,1291.992c-100.313,57.907-225.755-14.5-225.755-130.341v-909.7C-229.215,136.083-103.773,63.678-3.46,121.614Z" transform="translate(1189.215 -304.1)" fill="#f8fafe"/>
      <g id="Group_65" data-name="Group 65" transform="translate(2604 -109.5)">
        <g id="Group-4" transform="translate(-1691 243)">
          <g id="Group-3" transform="translate(0 293.312)">
            <g id="Oval-Copy-2" transform="translate(151 480)">
              <path id="Path_60" data-name="Path 60" d="M-345.914,3417.295a16.666,16.666,0,0,1-16.647-16.647A16.667,16.667,0,0,1-345.914,3384a16.667,16.667,0,0,1,16.647,16.648A16.666,16.666,0,0,1-345.914,3417.295Zm0-29.982a13.349,13.349,0,0,0-13.334,13.335,13.35,13.35,0,0,0,13.334,13.334,13.35,13.35,0,0,0,13.335-13.334A13.349,13.349,0,0,0-345.914,3387.313Z" transform="translate(362.561 -3384)" fill="url(#linear-gradient)"/>
            </g>
            <g id="Oval-Copy-7" transform="translate(130.364 48.203)">
              <path id="Path_61" data-name="Path 61" d="M434.958,3696.038a10.519,10.519,0,1,1,10.518-10.519A10.531,10.531,0,0,1,434.958,3696.038Zm0-17.725a7.206,7.206,0,1,0,7.206,7.206A7.214,7.214,0,0,0,434.958,3678.313Z" transform="translate(-424.439 -3675)" fill="url(#linear-gradient)"/>
            </g>
            <g id="Oval-Copy-5" transform="translate(700.198 470.37)">
              <path id="Path_62" data-name="Path 62" d="M3698.633,4183.387a9.194,9.194,0,1,1,9.193-9.193A9.2,9.2,0,0,1,3698.633,4183.387Zm0-15.074a5.881,5.881,0,1,0,5.88,5.881A5.887,5.887,0,0,0,3698.633,4168.313Z" transform="translate(-3689.439 -4165)" fill="url(#linear-gradient)"/>
            </g>
            <g id="Oval-Copy-6" transform="translate(342.85 112.737)">
              <path id="Path_63" data-name="Path 63" d="M4206.531,3829.184a12.092,12.092,0,1,1,12.092-12.092A12.106,12.106,0,0,1,4206.531,3829.184Zm0-20.871a8.779,8.779,0,1,0,8.779,8.779A8.79,8.79,0,0,0,4206.531,3808.313Z" transform="translate(-4194.439 -3805)" fill="url(#linear-gradient)"/>
            </g>
            <g id="_" data-name="+" transform="translate(1.625 169.425)">
              <path id="Path_64" data-name="Path 64" d="M-346.3,4422.486v-6.5h-6.454v-2.718h6.454v-6.454h2.75v6.454h6.454v2.718h-6.454v6.5Z" transform="translate(352.75 -4406.812)" fill="url(#linear-gradient)"/>
            </g>
            <g id="_-copy-3" data-name="+-copy-3" transform="translate(889.128 399.123)">
              <path id="Path_66" data-name="Path 66" d="M4298.749,4797.971,4309,4787.719l-10.187-10.187,4.285-4.285,10.187,10.187,10.177-10.176,4.34,4.34-10.177,10.176,10.187,10.187-4.284,4.285-10.187-10.187-10.253,10.253Z" transform="translate(-4298.749 -4773.247)" fill="url(#linear-gradient)"/>
            </g>
            <g id="_-copy-5" data-name="+-copy-5" transform="translate(-57.463 399.123)">
              <path id="Path_67" data-name="Path 67" d="M304.749,4797.971,315,4787.719l-10.187-10.187,4.285-4.285,10.187,10.187,10.176-10.176,4.34,4.34-10.176,10.176,10.187,10.187-4.285,4.285-10.187-10.187-10.253,10.253Z" transform="translate(-304.749 -4773.247)" fill="url(#linear-gradient)"/>
            </g>
            <g id="Oval-Copy-11" transform="translate(509.077 592.217)">
              <path id="Path_68" data-name="Path 68" d="M1670.9,4644.107a16.647,16.647,0,1,1,16.647-16.647A16.667,16.667,0,0,1,1670.9,4644.107Zm0-29.982a13.334,13.334,0,1,0,13.334,13.335A13.35,13.35,0,0,0,1670.9,4614.125Z" transform="translate(-1654.25 -4610.813)" fill="url(#linear-gradient)"/>
            </g>
          </g>
          <g id="Group-3-Copy" transform="translate(5.906)">
            <g id="Oval-Copy-2-2" data-name="Oval-Copy-2" transform="translate(830.325 161.894)">
              <path id="Path_69" data-name="Path 69" d="M4756.709,3010.295a16.647,16.647,0,1,1,16.647-16.647A16.666,16.666,0,0,1,4756.709,3010.295Zm0-29.982a13.335,13.335,0,1,0,13.335,13.335A13.349,13.349,0,0,0,4756.709,2980.313Z" transform="translate(-4740.062 -2977)" fill="url(#linear-gradient)"/>
            </g>
            <g id="Oval-Copy-7-2" data-name="Oval-Copy-7" transform="translate(600.219 178.948)">
              <path id="Path_70" data-name="Path 70" d="M4037.581,2781.037a10.519,10.519,0,1,1,10.519-10.519A10.531,10.531,0,0,1,4037.581,2781.037Zm0-17.724a7.206,7.206,0,1,0,7.206,7.206A7.214,7.214,0,0,0,4037.581,2763.313Z" transform="translate(-4027.062 -2760)" fill="url(#linear-gradient)"/>
            </g>
            <g id="Oval-Copy-6-2" data-name="Oval-Copy-6" transform="translate(93.585 165.267)">
              <path id="Path_72" data-name="Path 72" d="M250.153,2635.184a12.092,12.092,0,1,1,12.092-12.092A12.106,12.106,0,0,1,250.153,2635.184Zm0-20.871a8.779,8.779,0,1,0,8.779,8.779A8.789,8.789,0,0,0,250.153,2614.313Z" transform="translate(-238.061 -2611)" fill="url(#linear-gradient)"/>
            </g>
            <g id="_2" data-name="+" transform="translate(855.335 74.089)">
              <path id="Path_73" data-name="Path 73" d="M4845.923,2060.56v6.5h6.455v2.718h-6.455v6.454h-2.75v-6.454h-6.455v-2.718h6.455v-6.5Z" transform="translate(-4836.719 -2060.56)" fill="url(#linear-gradient)"/>
            </g>
            <g id="_-copy-2" data-name="+-copy-2" transform="translate(0 146.623)">
              <path id="Path_74" data-name="Path 74" d="M-315.063,2500.213l-4.179,4.179,4.152,4.152-1.746,1.747-4.152-4.152-4.148,4.147-1.769-1.769,4.148-4.148-4.152-4.152,1.746-1.747,4.152,4.152,4.179-4.179Z" transform="translate(326.909 -2498.444)" fill="url(#linear-gradient)"/>
            </g>
            <g id="Oval-Copy-11-2" data-name="Oval-Copy-11" transform="translate(505.247 22.677)">
              <path id="Path_77" data-name="Path 77" d="M2739.9,1783.484a16.647,16.647,0,1,1,16.647-16.647A16.666,16.666,0,0,1,2739.9,1783.484Zm0-29.982a13.335,13.335,0,1,0,13.335,13.335A13.35,13.35,0,0,0,2739.9,1753.5Z" transform="translate(-2723.25 -1750.189)" fill="url(#linear-gradient)"/>
            </g>
          </g>
        </g>
      </g>
      <path id="Path_83" data-name="Path 83" d="M-205.119,103.4l84.09,48.547a16.064,16.064,0,0,1,0,27.824l-84.09,48.55a16.066,16.066,0,0,1-24.1-13.912v-97.1A16.064,16.064,0,0,1-205.119,103.4Z" transform="translate(1930.996 802.507)" fill="#f8fafe"/>
    </g>
  </svg>
  