<svg xmlns="http://www.w3.org/2000/svg" width="1763.417" height="750.461" viewBox="0 0 1763.417 750.461">
    <g id="Group_63" data-name="Group 63" transform="translate(0.707 0.707)">
      <line id="Line_3" data-name="Line 3" x1="106.998" y2="106.998" transform="translate(528.913 84.522)" fill="none" stroke="#fff" stroke-linecap="round" stroke-miterlimit="10" stroke-width="1"/>
      <line id="Line_4" data-name="Line 4" x1="57.22" y2="57.22" transform="translate(762.155 268.611)" fill="none" stroke="#fff" stroke-linecap="round" stroke-miterlimit="10" stroke-width="1" opacity="0.3"/>
      <line id="Line_5" data-name="Line 5" x1="35.703" y2="35.703" transform="translate(753.209 521.784)" fill="none" stroke="#fff" stroke-linecap="round" stroke-miterlimit="10" stroke-width="1" opacity="0.3"/>
      <line id="Line_6" data-name="Line 6" x1="149.68" y2="148.775" transform="translate(1310.5 171.846)" fill="none" stroke="#fff" stroke-linecap="round" stroke-miterlimit="10" stroke-width="1" opacity="0.3"/>
      <line id="Line_7" data-name="Line 7" x1="53.764" y2="53.764" transform="translate(290.849 572.972)" fill="none" stroke="#fff" stroke-linecap="round" stroke-miterlimit="10" stroke-width="1"/>
      <line id="Line_8" data-name="Line 8" x1="106.998" y2="106.998" transform="translate(320.107 0)" fill="none" stroke="#fff" stroke-linecap="round" stroke-miterlimit="10" stroke-width="1"/>
      <line id="Line_9" data-name="Line 9" x1="106.998" y2="106.998" transform="translate(0 190.227)" fill="none" stroke="#fff" stroke-linecap="round" stroke-miterlimit="10" stroke-width="1"/>
      <line id="Line_10" data-name="Line 10" x1="106.998" y2="106.998" transform="translate(88.655 642.049)" fill="none" stroke="#fff" stroke-linecap="round" stroke-miterlimit="10" stroke-width="1"/>
      <line id="Line_11" data-name="Line 11" x1="106.998" y2="106.998" transform="translate(1004.846 227.235)" fill="none" stroke="#fff" stroke-linecap="round" stroke-miterlimit="10" stroke-width="1"/>
      <line id="Line_15" data-name="Line 15" x1="106.998" y2="106.998" transform="translate(1616 53.235)" fill="none" stroke="#fff" stroke-linecap="round" stroke-miterlimit="10" stroke-width="1"/>
      <line id="Line_12" data-name="Line 12" x1="106.998" y2="106.998" transform="translate(1142.005 642.049)" fill="none" stroke="#fff" stroke-linecap="round" stroke-miterlimit="10" stroke-width="1"/>
      <line id="Line_17" data-name="Line 17" x1="106.998" y2="106.998" transform="translate(1655.005 514.049)" fill="none" stroke="#fff" stroke-linecap="round" stroke-miterlimit="10" stroke-width="1"/>
      <line id="Line_13" data-name="Line 13" x1="106.998" y2="106.998" transform="translate(1048.002 60.42)" fill="none" stroke="#fff" stroke-linecap="round" stroke-miterlimit="10" stroke-width="1"/>
      <line id="Line_16" data-name="Line 16" x1="106.998" y2="106.998" transform="translate(1407.002 391.42)" fill="none" stroke="#fff" stroke-linecap="round" stroke-miterlimit="10" stroke-width="1"/>
      <line id="Line_14" data-name="Line 14" x1="106.998" y2="106.998" transform="translate(401.077 592.694)" fill="none" stroke="#fff" stroke-linecap="round" stroke-miterlimit="10" stroke-width="1"/>
      <circle id="Ellipse_10" data-name="Ellipse 10" cx="29.603" cy="29.603" r="29.603" transform="translate(315 372.188)" fill="none" stroke="#fff" stroke-miterlimit="10" stroke-width="2" opacity="0.5"/>
      <circle id="Ellipse_14" data-name="Ellipse 14" cx="29.603" cy="29.603" r="29.603" transform="translate(1355.853 616.188)" fill="none" stroke="#fff" stroke-miterlimit="10" stroke-width="2" opacity="0.5"/>
      <circle id="Ellipse_13" data-name="Ellipse 13" cx="29.603" cy="29.603" r="29.603" transform="translate(1375.793 42.188)" fill="none" stroke="#fff" stroke-miterlimit="10" stroke-width="2" opacity="0.5"/>
      <path id="Path_54" data-name="Path 54" d="M565.5,431.689a9.1,9.1,0,1,1-9.1-9.1A9.1,9.1,0,0,1,565.5,431.689Z" transform="translate(106.164 257.966)" fill="none" stroke="#fff" stroke-miterlimit="10" stroke-width="2" opacity="0.5"/>
      <path id="Path_58" data-name="Path 58" d="M565.5,431.689a9.1,9.1,0,1,1-9.1-9.1A9.1,9.1,0,0,1,565.5,431.689Z" transform="translate(1098.164 276.966)" fill="none" stroke="#fff" stroke-miterlimit="10" stroke-width="2" opacity="0.5"/>
      <path id="Path_59" data-name="Path 59" d="M565.5,431.689a9.1,9.1,0,1,1-9.1-9.1A9.1,9.1,0,0,1,565.5,431.689Z" transform="translate(1116.164 -151.034)" fill="none" stroke="#fff" stroke-miterlimit="10" stroke-width="2" opacity="0.5"/>
      <circle id="Ellipse_11" data-name="Ellipse 11" cx="9.103" cy="9.103" r="9.103" transform="translate(1014.302 470.969)" fill="none" stroke="#fff" stroke-miterlimit="10" stroke-width="2" opacity="0.5"/>
      <path id="Path_55" data-name="Path 55" d="M692.085,220.587a5.648,5.648,0,1,1-5.649-5.649A5.647,5.647,0,0,1,692.085,220.587Z" transform="translate(207.877 99.759)" fill="none" stroke="#fff" stroke-miterlimit="10" stroke-width="1.241" opacity="0.15"/>
      <path id="Path_56" data-name="Path 56" d="M570.668,318.311a5.648,5.648,0,1,1-5.649-5.649A5.649,5.649,0,0,1,570.668,318.311Z" transform="translate(115.369 174.215)" fill="none" stroke="#fff" stroke-miterlimit="10" stroke-width="1.241" opacity="0.3"/>
      <circle id="Ellipse_12" data-name="Ellipse 12" cx="9.103" cy="9.103" r="9.103" transform="translate(123.952 462.095)" fill="none" stroke="#fff" stroke-miterlimit="10" stroke-width="2" opacity="0.5"/>
      <path id="Path_57" data-name="Path 57" d="M434.435,123.765a9.1,9.1,0,1,1-9.1-9.1A9.1,9.1,0,0,1,434.435,123.765Z" transform="translate(6.307 23.359)" fill="none" stroke="#fff" stroke-miterlimit="10" stroke-width="2" opacity="0.5"/>
    </g>
  </svg>
  